<?xml version="1.0" encoding="UTF-8"?>
<svg width="32" height="32" viewBox="0 0 32 32" fill="none" xmlns="http://www.w3.org/2000/svg">
    <!-- Base do chapéu -->
    <path d="M8 22C8 22 8 26 16 26C24 26 24 22 24 22V14C24 10 20 8 16 8C12 8 8 10 8 14V22Z" fill="#0EA5E9"/>
    <!-- Topo do chapéu -->
    <path d="M16 4C10 4 6 7 6 11C6 15 10 17 16 17C22 17 26 15 26 11C26 7 22 4 16 4Z" fill="#0EA5E9"/>
    <!-- Detalhes em branco -->
    <circle cx="12" cy="10" r="1" fill="white"/>
    <circle cx="16" cy="9" r="1" fill="white"/>
    <circle cx="20" cy="10" r="1" fill="white"/>
    <path d="M12 13L14 15M18 15L20 13" stroke="white" stroke-width="1" stroke-linecap="round"/>
</svg>